<?xml version="1.0" standalone="no"?>
<svg viewBox="0 0 200 200" xmlns="http://www.w3.org/2000/svg">
  <path fill="#ff0066" d="M 79.4 -74.7 C 90.3 -63.1 90.2 -41.8 92.6 -23.9 C 94.9 -6.1 99.9 8.5 99 24.3 C 98 40.1 91.2 57.4 77.8 69.5 C 64.3 81.7 44.5 88.9 22.9 91 C 1.4 93 -21.9 90.1 -36.3 78.2 C -50.9 66.3 -56.7 45.6 -63.7 25.4 C -70.7 5.2 -78.8 -14.5 -70.7 -27 C -62.6 -39.3 -38.3 -44.5 -19.6 -53.8 C -1 -63.1 11.8 -76.6 29.2 -82.3 C 46.6 -88.2 68.6 -86.3 79.4 -74.7 Z" transform="matrix(1,0,0,1,100,100)" />
</svg>
