<svg viewBox="0 0 200 187" xmlns="http://www.w3.org/2000/svg" xmlns:xlink="http://www.w3.org/1999/xlink">
    <mask id="mask0" mask-type="alpha">
        <path d="M 190.3 36.5 C 206.6 62.1 201.3 102.8 182.3 134.2 C 163.3 165.5 130.8 187.6 100.2 186.4 C 69.6 185.3 41 161 21.7 129.4 C 2.5 97.9 -7.5 59.1 6.7 34.5 C 21 10.1 59.7 -0.1 98 0 C 136.2 0.3 174.2 10.9 190.3 36.5 Z"/>
    </mask>
    <g mask="url(#mask0)">
        <path d="M 177.3 5.5 C 193.6 31.1 188.3 71.8 169.3 103.2 C 150.3 134.5 117.8 156.6 87.2 155.4 C 56.6 154.3 28 130 8.7 98.4 C -10.5 66.9 -20.5 28.1 -6.3 3.5 C 8 -20.9 46.7 -31.1 85 -31 C 123.2 -30.7 161.2 -20.1 177.3 5.5 Z"/>
        <image x="-13" y="-31" href=""/>
    </g>
</svg>



